<?xml version="1.0" standalone="no"?>
<!DOCTYPE svg PUBLIC "-//W3C//DTD SVG 20010904//EN"
 "http://www.w3.org/TR/2001/REC-SVG-20010904/DTD/svg10.dtd">
<svg version="1.0" xmlns="http://www.w3.org/2000/svg"
 width="812.000000pt" height="812.000000pt" viewBox="0 0 812.000000 812.000000"
 preserveAspectRatio="xMidYMid meet">
<metadata>
Created by potrace 1.14, written by Peter Selinger 2001-2017
</metadata>
<g transform="translate(0.000000,812.000000) scale(0.100000,-0.100000)"
fill="#000000" stroke="none">
<path d="M1247 6354 c-1 -1 -42 -5 -91 -8 -49 -4 -92 -8 -95 -10 -4 -3 -26 -7
-49 -11 -70 -10 -241 -64 -320 -100 -205 -95 -380 -265 -449 -436 -60 -148
-73 -314 -39 -497 17 -88 94 -240 166 -327 57 -70 181 -185 260 -244 47 -35
179 -126 295 -203 391 -262 533 -381 642 -539 78 -113 123 -220 142 -336 10
-57 8 -289 -2 -328 -44 -171 -133 -264 -306 -320 -60 -20 -221 -26 -306 -12
-65 11 -167 54 -241 103 -73 48 -225 200 -286 285 -46 65 -158 245 -158 254 1
3 -10 24 -24 48 -14 23 -63 116 -109 207 -82 162 -107 192 -128 158 -5 -7 -6
-128 -3 -268 2 -140 6 -343 8 -451 2 -114 8 -205 14 -216 51 -94 266 -182 586
-239 186 -33 476 -38 586 -9 8 3 31 7 50 10 54 9 210 55 242 71 l28 15 1 -53
c4 -305 136 -623 349 -844 290 -301 681 -434 1145 -390 44 4 82 9 85 11 3 2
22 6 42 9 100 16 281 79 376 132 304 169 528 431 665 779 34 84 85 245 93 290
7 43 46 230 48 232 1 2 35 -11 74 -28 241 -101 408 -93 613 31 l35 22 100 -56
c151 -84 400 -181 518 -202 17 -3 47 -9 66 -14 123 -32 348 -53 565 -54 139 0
375 11 428 19 12 2 54 6 92 10 39 3 85 8 103 11 69 9 109 15 167 24 33 5 78
11 99 15 99 14 387 75 405 85 12 6 22 17 22 25 1 8 2 21 3 28 1 6 -4 44 -10
82 -20 117 -27 240 -26 466 1 482 20 552 159 563 26 3 52 5 56 5 5 1 7 16 5
34 l-3 32 -135 -3 c-207 -4 -766 -2 -850 2 -41 2 -136 7 -210 11 -74 4 -138 9
-141 11 -19 11 -43 -65 -26 -82 3 -3 47 -7 99 -9 219 -9 308 -28 364 -77 78
-69 101 -178 102 -471 0 -325 -30 -463 -125 -568 -79 -87 -173 -113 -423 -113
-224 -1 -237 0 -451 54 -49 13 -192 74 -259 112 -139 79 -287 203 -400 335
l-52 62 11 48 c26 117 16 228 -25 275 -30 34 -89 55 -143 52 l-49 -2 -15 41
c-93 252 -131 479 -131 777 0 199 16 354 51 485 8 33 17 70 19 83 3 12 20 64
38 115 164 445 471 738 882 838 70 17 121 22 239 23 83 1 175 -2 205 -6 396
-52 793 -374 1008 -818 25 -52 50 -98 55 -102 12 -8 53 7 50 19 0 4 -4 44 -8
88 -10 126 -12 156 -19 223 -3 34 -9 90 -12 125 -3 34 -7 78 -9 97 -2 19 -7
69 -11 110 -4 41 -8 89 -9 105 -2 17 -4 42 -4 58 -1 15 -9 35 -19 45 -42 42
-356 125 -557 147 -27 4 -61 8 -75 11 -124 22 -579 22 -725 -1 -16 -3 -43 -6
-60 -9 -171 -23 -382 -79 -550 -146 -89 -35 -266 -122 -307 -151 -14 -11 -29
-19 -32 -19 -8 0 -98 -64 -176 -126 -414 -326 -646 -815 -634 -1338 3 -114 19
-258 40 -346 9 -36 17 -72 19 -80 13 -63 68 -204 117 -301 75 -151 161 -273
280 -397 27 -28 48 -52 45 -52 -15 0 -195 83 -368 170 -334 168 -457 211 -606
213 -127 1 -201 -16 -317 -75 -86 -43 -143 -84 -211 -153 -59 -59 -68 -70
-111 -131 -56 -81 -95 -224 -83 -310 15 -110 76 -164 183 -161 77 2 117 29
142 92 21 55 14 108 -21 167 -61 103 -85 162 -80 198 19 122 212 137 455 35
71 -30 302 -144 390 -193 65 -36 65 -35 33 -186 -77 -370 -258 -675 -519 -872
-58 -44 -226 -134 -274 -148 -182 -50 -189 -51 -370 -50 -231 0 -353 37 -549
163 -198 128 -356 337 -435 578 -23 70 -58 215 -53 219 3 2 231 178 242 186
22 18 274 214 304 238 18 14 38 30 44 35 12 11 136 111 191 155 53 42 289 243
340 290 297 272 533 592 614 830 73 217 78 451 12 605 -50 116 -158 183 -280
172 -106 -9 -178 -68 -204 -169 -29 -114 2 -204 97 -275 78 -60 137 -121 154
-161 37 -88 17 -237 -49 -367 -45 -90 -55 -106 -146 -226 l-65 -87 -56 28
c-89 43 -111 50 -218 69 -272 49 -560 -11 -835 -172 l-46 -28 -7 33 c-13 61
-77 182 -145 273 -122 162 -210 233 -630 514 -306 205 -410 281 -499 365 -207
197 -286 408 -244 650 30 178 144 300 328 352 127 36 338 14 458 -48 55 -27
139 -96 184 -150 102 -121 253 -393 338 -608 21 -52 42 -99 46 -104 5 -6 18
-5 33 2 l24 11 1 408 c0 256 -3 420 -10 440 -6 18 -24 41 -42 52 -70 42 -295
99 -487 122 -80 9 -316 19 -323 13z m1487 -2279 c43 -9 128 -67 170 -116 20
-24 53 -76 73 -116 41 -83 50 -64 -79 -175 -166 -144 -205 -176 -491 -406
-160 -128 -292 -230 -295 -227 -3 3 -5 64 -4 136 l1 130 45 88 c25 49 54 121
66 162 19 68 24 101 34 216 8 83 125 235 216 280 77 38 173 48 264 28z"/>
</g>
</svg>
